<svg width="288" height="253" viewBox="0 0 288 253" fill="none" xmlns="http://www.w3.org/2000/svg">
<path d="M136.26 252.82C211.514 252.82 272.519 250.126 272.519 246.802C272.519 243.479 211.514 240.785 136.26 240.785C61.0056 240.785 0 243.479 0 246.802C0 250.126 61.0056 252.82 136.26 252.82Z" fill="black"/>
<path d="M121.747 233.221C121.747 233.221 172.202 229.851 167.653 215.472C163.104 201.092 140.517 215.912 140.517 215.912C140.517 215.912 158.243 203.116 158.849 188.483C159.456 173.85 125.932 212.258 125.932 212.258C125.932 212.258 136.018 199.615 135.244 184.361C134.47 169.105 111.647 192.844 121.747 233.221Z" fill="#CDE1CE"/>
<path opacity="0.39" d="M124.177 225.255C124.177 225.255 160.023 179.988 151.123 194.114C142.223 208.24 124.177 225.255 124.177 225.255Z" fill="#A87D1D"/>
<path opacity="0.39" d="M160.68 216.459L125.994 225.603C125.994 225.603 156.583 221.904 160.68 216.459Z" fill="#A87D1D"/>
<path opacity="0.39" d="M130.185 187.889L121.155 215.765C121.155 215.765 124.363 192.534 130.185 187.889Z" fill="#A87D1D"/>
<path d="M22.0481 248.373H117.781C125.752 248.373 132.214 241.911 132.214 233.94V14.4336C132.214 6.46256 125.752 0 117.781 0H22.0481C14.077 0 7.61523 6.4618 7.61523 14.4336V233.94C7.61523 241.911 14.077 248.373 22.0481 248.373Z" fill="#2F2F35"/>
<path d="M28.0896 247.283H123.822C131.793 247.283 138.255 240.862 138.255 232.941V14.8166C138.255 6.89552 131.793 0.474609 123.822 0.474609H28.0896C20.1186 0.474609 13.656 6.89552 13.656 14.8166V232.941C13.6568 240.862 20.1186 247.283 28.0896 247.283Z" stroke="#9191A3" stroke-width="0.9332" stroke-miterlimit="10"/>
<path d="M36.9532 248.373H132.686C140.657 248.373 147.119 241.911 147.119 233.94V14.4336C147.119 6.46256 140.657 0 132.686 0H36.9532C28.9822 0 22.5204 6.4618 22.5204 14.4336V233.94C22.5196 241.911 28.9814 248.373 36.9532 248.373Z" fill="#333333"/>
<path d="M32.7693 234.103H136.865C140.561 234.103 143.557 231.107 143.557 227.411V13.0389C143.557 9.34343 140.561 6.34766 136.865 6.34766H32.7693C29.0738 6.34766 26.078 9.34343 26.078 13.0389V227.411C26.078 231.107 29.0738 234.103 32.7693 234.103Z" fill="#FFFFFD"/>
<path d="M80.0576 241.038C80.0576 243.668 82.1893 245.799 84.8186 245.799C87.4478 245.799 89.5795 243.668 89.5795 241.038C89.5795 238.409 87.4478 236.277 84.8186 236.277C82.1886 236.277 80.0576 238.408 80.0576 241.038Z" fill="white"/>
<path d="M15.2664 36.0039C17.0422 36.0039 18.4826 37.4435 18.4826 39.22V58.114C18.4826 59.8898 17.043 61.3301 15.2664 61.3301H12.0503V58.114V39.22V36.0039H15.2664Z" fill="#333333"/>
<path d="M8.83594 58.112C8.83594 59.8878 10.2755 61.3282 12.0521 61.3282C13.8279 61.3282 15.2682 59.8886 15.2682 58.112V39.2181C15.2682 37.4423 13.8279 36.002 12.0521 36.002C10.2763 36.002 8.83594 37.4415 8.83594 39.2181V58.112Z" fill="#A9A7AA"/>
<path d="M15.2664 66.1504C17.0422 66.1504 18.4826 67.59 18.4826 69.3665V88.2605C18.4826 90.0363 17.043 91.4766 15.2664 91.4766H12.0503V88.2605V69.3665V66.1504H15.2664Z" fill="#333333"/>
<path d="M8.83594 88.2605C8.83594 90.0363 10.2755 91.4766 12.0521 91.4766C13.8279 91.4766 15.2682 90.037 15.2682 88.2605V69.3665C15.2682 67.59 13.8279 66.1504 12.0521 66.1504C10.2763 66.1504 8.83594 67.59 8.83594 69.3665V88.2605Z" fill="#A9A7AA"/>
<path d="M39.1017 153.78H129.11C132.723 153.78 135.652 150.852 135.652 147.239V28.4769C135.652 24.8639 132.723 21.9355 129.11 21.9355H39.1017C35.4888 21.9355 32.5604 24.8639 32.5604 28.4769V147.239C32.5604 150.852 35.4896 153.78 39.1017 153.78Z" fill="#ECECEC"/>
<path d="M36.9125 227.221H131.3C133.703 227.221 135.652 225.272 135.652 222.869V162.153C135.652 159.749 133.703 157.801 131.3 157.801H36.9125C34.5089 157.801 32.5604 159.749 32.5604 162.153V222.869C32.5604 225.272 34.5089 227.221 36.9125 227.221Z" fill="#ECECEC"/>
<path d="M119.752 7.63854C119.752 10.9107 117.1 13.5642 113.827 13.5642H56.1529C52.8808 13.5642 50.2273 10.9115 50.2273 7.63854C50.2273 4.36637 52.88 1.71289 56.1529 1.71289H113.827C117.1 1.71289 119.752 4.36561 119.752 7.63854Z" fill="#333333"/>
<path d="M42.4526 30.6797H54.2426" stroke="#333333" stroke-width="1.6105" stroke-miterlimit="10"/>
<path d="M42.4526 34.9297H54.2426" stroke="#333333" stroke-width="1.6105" stroke-miterlimit="10"/>
<path d="M42.4526 39.1816H54.2426" stroke="#333333" stroke-width="1.6105" stroke-miterlimit="10"/>
<path d="M99.5991 31.7566C99.5991 29.3167 93.7772 27.9498 93.7772 31.7566C93.7772 37.808 99.5991 40.4751 99.5991 40.4751C99.5991 40.4751 105.421 37.808 105.421 31.7566C105.421 27.9506 99.5991 29.3167 99.5991 31.7566Z" fill="#333333"/>
<path d="M123.927 37.8745H114.564L113.73 30.6797H124.762L123.927 37.8745Z" fill="#333333"/>
<path d="M116.768 40.7526C117.562 40.7526 118.206 40.1084 118.206 39.3138C118.206 38.5192 117.562 37.875 116.768 37.875C115.973 37.875 115.329 38.5192 115.329 39.3138C115.329 40.1084 115.973 40.7526 116.768 40.7526Z" fill="#333333"/>
<path d="M121.724 40.7526C122.519 40.7526 123.163 40.1084 123.163 39.3138C123.163 38.5192 122.519 37.875 121.724 37.875C120.929 37.875 120.285 38.5192 120.285 39.3138C120.285 40.1084 120.929 40.7526 121.724 40.7526Z" fill="#333333"/>
<path d="M127.8 30.6797H123.163V32.2465H127.8V30.6797Z" fill="#333333"/>
<path d="M129.413 163.598H37.9901V179.145H129.413V163.598Z" fill="#2E7D32"/>
<path opacity="0.53" d="M59.4875 183.857H37.9901V205.355H59.4875V183.857Z" fill="#333333"/>
<path opacity="0.28" d="M86.7046 183.857H65.2072V205.355H86.7046V183.857Z" fill="#333333"/>
<path opacity="0.13" d="M113.755 183.857H92.2584V205.355H113.755V183.857Z" fill="#333333"/>
<path d="M120.309 188.605V200.008L129.413 194.307L120.309 188.605Z" fill="#333333"/>
<path d="M37.9901 212.598H129.414" stroke="#333333" stroke-width="0.9416" stroke-miterlimit="10"/>
<path d="M37.9901 218.721H129.414" stroke="#333333" stroke-width="0.9416" stroke-miterlimit="10"/>
<path d="M50.7509 171.373H113.972" stroke="#2F2F35" stroke-width="1.8664" stroke-miterlimit="10" stroke-linecap="round"/>
<path d="M59.4872 7.37753C59.4872 8.82544 58.3135 9.99922 56.8656 9.99922C55.4177 9.99922 54.2439 8.82544 54.2439 7.37753C54.2439 5.92963 55.4177 4.75586 56.8656 4.75586C58.3135 4.75586 59.4872 5.92963 59.4872 7.37753Z" fill="white"/>
<path d="M130.166 51.2832H103.372V63.7358H130.166V51.2832Z" fill="#2E7D32"/>
<path d="M108.498 57.5098H124.577" stroke="#333333" stroke-width="0.9416" stroke-miterlimit="10" stroke-linecap="round"/>
<path d="M114.719 57.5566C114.719 57.5566 117.208 62.1094 120.286 62.2298C122.607 70.0372 126.932 73.0035 130.165 74.4544C147.119 97.4884 147.119 97.4884 147.119 97.4884V78.527L125.482 57.5566H114.719Z" fill="#333333"/>
<path opacity="0.33" d="M84.0612 142.209C103.27 142.209 118.841 139.755 118.841 136.727C118.841 133.699 103.27 131.244 84.0612 131.244C64.8528 131.244 49.2812 133.699 49.2812 136.727C49.2812 139.755 64.8528 142.209 84.0612 142.209Z" fill="#333333"/>
<path d="M82.673 91.1641C73.4729 91.1641 64.7423 92.6339 56.8947 95.2692C55.4158 95.766 54.4798 97.2245 54.6123 98.7792L57.4233 131.737C57.6497 134.388 59.867 136.425 62.5281 136.425H104.63C107.29 136.425 109.508 134.388 109.735 131.737L112.494 99.3994C112.624 97.875 111.727 96.4407 110.29 95.9159C101.976 92.8763 92.5978 91.1641 82.673 91.1641Z" fill="#2E7D32"/>
<path d="M54.7039 99.853C54.9796 98.7618 55.7838 97.8455 56.8947 97.4721C64.7423 94.8368 73.4729 93.367 82.673 93.367C92.5986 93.367 101.976 95.0792 110.289 98.1189C111.362 98.5111 112.133 99.41 112.401 100.475L112.493 99.3994C112.623 97.875 111.726 96.4407 110.289 95.916C101.976 92.8763 92.5986 91.1641 82.673 91.1641C73.4729 91.1641 64.7423 92.6339 56.8947 95.2692C55.4158 95.766 54.4798 97.2245 54.6123 98.7792L54.7039 99.853Z" fill="#2F2F35"/>
<path d="M58.0194 102.458C58.0194 104.294 56.5306 105.783 54.6942 105.783C52.8578 105.783 51.3683 104.294 51.3683 102.458C51.3683 100.622 52.8571 99.1328 54.6942 99.1328C56.5306 99.1328 58.0194 100.622 58.0194 102.458Z" stroke="#2F2F35" stroke-width="1.8664" stroke-miterlimit="10"/>
<path d="M105.616 110.273H61.9683V111.521H105.616V110.273Z" fill="#2F2F35"/>
<path d="M63.8038 113.177C63.8038 114.091 63.0625 114.832 62.1484 114.832C61.2344 114.832 60.493 114.091 60.493 113.177C60.493 112.263 61.2344 111.521 62.1484 111.521C63.0625 111.521 63.8038 112.262 63.8038 113.177Z" stroke="#2F2F35" stroke-width="1.8664" stroke-miterlimit="10"/>
<path d="M69.3568 102.93C69.3568 104.463 68.1134 105.707 66.5799 105.707C65.0464 105.707 63.803 104.463 63.803 102.93V99.1617C63.803 97.6282 65.0464 96.3848 66.5799 96.3848C68.1134 96.3848 69.3568 97.6282 69.3568 99.1617V102.93Z" fill="#2F2F35"/>
<path d="M95.9863 102.93C95.9863 104.463 97.2298 105.707 98.7625 105.707C100.296 105.707 101.539 104.463 101.539 102.93V99.1617C101.539 97.6282 100.296 96.3848 98.7625 96.3848C97.229 96.3848 95.9863 97.6282 95.9863 99.1617V102.93Z" fill="#2F2F35"/>
<path d="M66.5818 100.261C66.5818 100.261 65.8517 50.3066 83.5522 50.3066C101.253 50.3066 98.7628 100.261 98.7628 100.261" stroke="#2E7D32" stroke-width="3.7329" stroke-miterlimit="10" stroke-linecap="round"/>
<path d="M55.9839 114.865L57.4227 131.738C57.6491 134.389 59.8664 136.426 62.5275 136.426H93.1288C68.9779 134.494 55.9839 114.865 55.9839 114.865Z" fill="#CDE1CE"/>
<path d="M226.387 178.6L228.607 246.802H203.135C203.135 246.802 203.24 241.768 209.747 238.836C208.471 178.69 208.471 178.69 208.471 178.69L226.387 178.6Z" fill="#FF7E6E"/>
<path d="M203.137 178.599L197.997 246.801H171.462C171.462 246.801 173.746 239.822 180.99 238.836C185.509 171.684 185.509 171.684 185.509 171.684L203.137 178.599Z" fill="#FF7E6E"/>
<path d="M226.385 178.6L208.469 178.689C208.469 178.689 208.469 178.696 208.792 193.916C214.122 195.194 220.156 196.178 226.974 196.72L226.385 178.6Z" fill="#0F1201"/>
<path d="M184.681 183.96C189.083 186.838 194.798 189.722 202.12 192.061L203.134 178.6L185.507 171.684C185.507 171.684 185.506 171.69 184.681 183.96Z" fill="#0F1201"/>
<path d="M196.455 83.7812L171.462 170.976C171.462 170.976 200.268 199.217 243.194 177.472C222.924 83.7813 222.924 83.7812 222.924 83.7812L203.137 84.8403L196.455 83.7812Z" fill="#5A5A66"/>
<path d="M230.542 6.15803C230.542 6.15803 227.134 -0.733086 216.524 0.39662C205.914 1.52632 198.592 15.4702 199.136 29.0396C199.68 42.6091 208.274 54.3374 208.274 54.3374L234.437 47.6453C234.437 47.6453 239.884 35.4475 234.437 25.5441C228.99 15.6407 229.553 8.30374 229.553 8.30374L230.542 6.15803Z" fill="#1C2F36"/>
<path d="M205.137 32.3086C205.137 32.3086 195.949 33.4383 188.868 41.628C181.788 49.8178 168.974 63.5091 168.974 63.5091L148.978 42.3476C147.127 40.3879 144.306 39.2452 141.322 39.2452H123.846C122.699 39.2452 121.77 40.024 121.77 40.984V41.0189C121.77 41.9789 122.699 42.7578 123.846 42.7578H130.536C130.536 42.7578 131.21 51.1083 134.245 52.5198C137.28 53.9322 141.663 54.7792 141.663 54.7792L160.505 75.65C164.415 80.5415 172.824 80.946 177.378 76.4621L198.983 55.1837L205.137 32.3086Z" fill="#FF7E6E"/>
<path d="M214.527 17.4271L212.675 33.4127L219.789 34.2898L220.374 24.3353L217.06 16.7969L214.527 17.4271Z" fill="#FF7E6E"/>
<path d="M215.521 17.1805L215.641 18.1048C215.641 18.1048 215.943 26.4854 219.972 31.191L220.375 24.3372L217.061 16.7988L215.521 17.1805Z" fill="#0F1201"/>
<path d="M215.34 14.8646C215.34 14.8646 215.34 26.2997 222.747 29.0286C224.436 29.4184 230.803 19.8025 231.583 13.4352C232.363 7.06794 230.543 6.15833 230.543 6.15833C230.543 6.15833 219.628 3.1696 215.34 14.8646Z" fill="#FF7E6E"/>
<path d="M216.493 16.0114C216.562 17.5009 215.41 18.7646 213.92 18.8336C212.431 18.9027 211.167 17.751 211.098 16.2607C211.029 14.7712 212.18 13.5075 213.671 13.4385C215.16 13.3695 216.424 14.5211 216.493 16.0114Z" fill="#FF7E6E"/>
<path d="M223.956 18.4189C223.956 18.4189 223.377 16.9717 221.235 16.5664" stroke="#700B00" stroke-width="0.9332" stroke-miterlimit="10" stroke-linecap="round"/>
<path d="M227.659 19.4052C227.659 19.4052 228.612 19.2793 229.553 19.8925" stroke="#700B00" stroke-width="0.9332" stroke-miterlimit="10" stroke-linecap="round"/>
<path d="M226.388 21.0254L225.982 22.6456L224.478 21.8359" stroke="#700B00" stroke-width="0.384" stroke-miterlimit="10"/>
<path d="M221.003 21.8359L225.431 24.0352C225.431 24.0352 222.623 25.5402 221.003 21.8359Z" fill="white"/>
<path d="M198.985 55.1864L200.449 49.7417L201.124 39.7969C201.124 39.7969 194.316 46.623 194.261 59.8392L198.985 55.1864Z" fill="#0F1201"/>
<path d="M225.168 14.7729C225.168 14.7729 224.358 13.2103 221.753 13.7885" stroke="#700B00" stroke-width="0.384" stroke-miterlimit="10"/>
<path d="M228.991 15.6406C228.991 15.6406 230.375 15.639 230.783 16.7971" stroke="#700B00" stroke-width="0.384" stroke-miterlimit="10"/>
<path d="M231.724 11.9019C232.051 6.92988 230.543 6.15833 230.543 6.15833C230.543 6.15833 219.628 3.1696 215.34 14.8646C220.794 8.73285 228.944 10.9094 231.724 11.9019Z" fill="white"/>
<path d="M217.645 30.8477L228.199 34.2165C228.199 34.2165 223.126 65.564 222.922 83.7797C209.586 89.075 203.443 88.2279 196.453 83.7797C198.783 63.0227 198.783 63.0227 198.783 63.0227C198.783 63.0227 194.123 53.7033 198.359 45.2309C202.595 36.7585 205.137 32.3104 205.137 32.3104L217.645 30.8477Z" fill="#1D5620"/>
<path d="M228.198 34.2148C228.198 34.2148 232.46 34.8499 237.966 44.5933C241.691 51.1832 249.872 67.3637 254.778 77.1485C256.924 81.4277 255.008 86.6255 250.601 88.4951L220.28 101.359V104.536C220.28 104.536 225.506 104.112 223.37 106.866C221.359 109.457 215.389 111.485 211.004 108.364C210.487 107.997 210.14 107.431 210.019 106.809C208.311 97.977 208.365 94.9355 213.131 92.8864C218.056 90.7683 241.355 79.1188 241.355 79.1188L225.492 52.0075L220.28 53.4905L228.198 34.2148Z" fill="#FF7E6E"/>
<path opacity="0.5" d="M148.978 42.3505C147.127 40.3908 144.306 39.248 141.322 39.248H131.943C132.729 40.8569 134.766 43.455 139.947 44.5067C147.693 46.0783 153.831 55.5537 159.514 61.7285C165.198 67.9033 169.972 69.9491 173.382 67.6758C171.399 65.7713 169.989 64.3988 169.028 63.4559C168.995 63.49 168.974 63.5127 168.974 63.5127L148.978 42.3505Z" fill="white"/>
<path d="M217.644 30.8477L208.547 31.9116C207.126 35.3925 203.09 46.3167 207.89 47.561C212.467 48.7475 220.506 37.3343 223.535 32.7286L217.644 30.8477Z" fill="#FF7E6E"/>
<path d="M207.466 74.461C203.654 71.0719 198.782 63.0234 198.782 63.0234C198.782 63.0234 198.781 63.0324 197.993 70.0518C202.052 75.2869 210.997 77.5991 207.466 74.461Z" fill="#48814B"/>
<path d="M222.922 83.7804C222.937 82.4704 222.979 81.0856 223.041 79.6562C219.206 81.6809 209.217 85.6564 196.806 80.6357C196.695 81.6306 196.578 82.6702 196.453 83.7804C203.443 88.2277 209.586 89.0756 222.922 83.7804Z" fill="#FF7E6E"/>
<path opacity="0.49" d="M250.253 84.0311C250.253 85.5255 250.661 86.9207 251.363 88.1243C255.222 86.0071 256.796 81.1731 254.779 77.1489C254.725 77.0409 254.668 76.928 254.613 76.8184C252.022 78.1836 250.253 80.8986 250.253 84.0311Z" fill="#CD2E2B"/>
<path opacity="0.49" d="M176.304 77.3682C174.595 75.3784 171.814 74.0781 168.663 74.0781C165.839 74.0781 163.313 75.1242 161.587 76.7737C165.466 80.2586 172.026 80.5396 176.304 77.3682Z" fill="#CD2E2B"/>
<path d="M168.976 63.5117L173.066 67.3694" stroke="#7B3C38" stroke-width="0.4096" stroke-miterlimit="10" stroke-linecap="round"/>
<path d="M241.356 79.1201L247.711 75.8828" stroke="#7B3C38" stroke-width="0.4096" stroke-miterlimit="10" stroke-linecap="round"/>
<path d="M228.199 34.215L225.679 33.4102C222.896 37.9225 213.297 55.4041 224 66.5785C225.546 50.6124 228.199 34.215 228.199 34.215Z" fill="#FF7E6E"/>
<path d="M207.893 47.5592L209 44.5039" stroke="#7B3C38" stroke-width="0.4096" stroke-miterlimit="10" stroke-linecap="round"/>
<path d="M212.675 14.8633L213.92 18.8323" stroke="#7B3C38" stroke-width="0.4096" stroke-miterlimit="10" stroke-linecap="round"/>
<path opacity="0.5" d="M237.967 44.5949C234.551 38.5524 231.616 36.0145 229.878 34.957C228.58 36.7941 227.806 40.6177 232.328 48.1854C239.764 60.6259 255.074 81.5836 250.602 88.4966C255.009 86.627 256.925 81.43 254.779 77.15C249.873 67.3652 241.692 51.1839 237.967 44.5949Z" fill="white"/>
<path d="M225.63 52.2386L223.042 48.4727C223.042 48.4727 223.284 52.8014 225.167 55.9502L225.63 52.2386Z" fill="#0F1201"/>
<path d="M205.823 241.469C203.201 244.077 203.135 246.801 203.135 246.801H228.607L228.381 239.875C216.314 244.892 208.704 242.737 205.823 241.469Z" fill="#1D5620"/>
<path d="M175.484 241.195C172.524 243.572 171.462 246.803 171.462 246.803H197.997L198.492 240.227C185.53 245.152 178.481 242.916 175.484 241.195Z" fill="#1D5620"/>
<path d="M191.154 233.143C191.154 233.143 191.154 237.427 196.662 236.407" stroke="#7B3C38" stroke-width="0.4096" stroke-miterlimit="10" stroke-linecap="round"/>
<path d="M220.477 233.143C220.477 233.143 220.477 237.427 225.985 236.407" stroke="#7B3C38" stroke-width="0.4096" stroke-miterlimit="10" stroke-linecap="round"/>
<path d="M242.763 112.146C235.197 112.611 228.091 114.261 221.77 116.825C220.579 117.309 219.883 118.555 220.07 119.827L224.048 146.79C224.368 148.958 226.295 150.522 228.483 150.387L263.108 148.259C265.296 148.125 267.017 146.337 267.069 144.146L267.703 117.412C267.733 116.153 266.923 115.018 265.715 114.659C258.724 112.579 250.925 111.645 242.763 112.146Z" fill="#2E7D32"/>
<path d="M220.2 120.706C220.372 119.795 220.987 119.001 221.882 118.638C228.202 116.074 235.308 114.423 242.874 113.959C251.036 113.457 258.835 114.392 265.825 116.471C266.727 116.739 267.407 117.44 267.681 118.301L267.702 117.412C267.732 116.152 266.922 115.018 265.714 114.659C258.724 112.58 250.925 111.645 242.763 112.147C235.197 112.611 228.091 114.262 221.77 116.826C220.579 117.309 219.883 118.555 220.07 119.827L220.2 120.706Z" fill="#2F2F35"/>
<path d="M223.056 122.683C223.148 124.194 221.999 125.493 220.489 125.586C218.979 125.678 217.679 124.529 217.587 123.019C217.494 121.509 218.643 120.209 220.153 120.117C221.663 120.023 222.963 121.172 223.056 122.683Z" stroke="#2F2F35" stroke-width="1.4339" stroke-miterlimit="10"/>
<path d="M262.581 126.713L226.687 128.918L226.75 129.943L262.644 127.739L262.581 126.713Z" fill="#2F2F35"/>
<path d="M228.358 131.204C228.404 131.956 227.831 132.603 227.08 132.649C226.328 132.695 225.681 132.123 225.635 131.371C225.589 130.619 226.162 129.972 226.913 129.926C227.665 129.88 228.311 130.452 228.358 131.204Z" stroke="#2F2F35" stroke-width="1.4339" stroke-miterlimit="10"/>
<path d="M232.408 122.497C232.485 123.758 231.526 124.843 230.264 124.92C229.003 124.997 227.918 124.038 227.841 122.777L227.651 119.678C227.574 118.417 228.533 117.332 229.794 117.254C231.055 117.177 232.14 118.136 232.218 119.398L232.408 122.497Z" fill="#2F2F35"/>
<path d="M254.305 121.152C254.382 122.413 255.468 123.372 256.728 123.295C257.989 123.218 258.949 122.132 258.871 120.872L258.681 117.773C258.604 116.511 257.519 115.552 256.258 115.629C254.997 115.707 254.038 116.792 254.115 118.053L254.305 121.152Z" fill="#2F2F35"/>
<path d="M242.763 112.146C235.197 112.611 228.091 114.261 221.77 116.825C220.579 117.309 219.883 118.555 220.07 119.827L224.048 146.79C224.368 148.958 226.295 150.522 228.483 150.387L263.108 148.259C265.296 148.125 267.017 146.337 267.069 144.146L267.703 117.412C267.733 116.153 266.923 115.018 265.715 114.659C258.724 112.579 250.925 111.645 242.763 112.146Z" fill="#2E7D32"/>
<path d="M220.2 120.706C220.372 119.795 220.987 119.001 221.882 118.638C228.202 116.074 235.308 114.423 242.874 113.959C251.036 113.457 258.835 114.392 265.825 116.471C266.727 116.739 267.407 117.44 267.681 118.301L267.702 117.412C267.732 116.152 266.922 115.018 265.714 114.659C258.724 112.58 250.925 111.645 242.763 112.147C235.197 112.611 228.091 114.262 221.77 116.826C220.579 117.309 219.883 118.555 220.07 119.827L220.2 120.706Z" fill="#2F2F35"/>
<path d="M223.056 122.683C223.148 124.194 221.999 125.493 220.489 125.586C218.979 125.678 217.679 124.529 217.587 123.019C217.494 121.509 218.643 120.209 220.153 120.117C221.663 120.023 222.963 121.172 223.056 122.683Z" stroke="#2F2F35" stroke-width="1.4339" stroke-miterlimit="10"/>
<path d="M262.581 126.713L226.687 128.918L226.75 129.943L262.644 127.739L262.581 126.713Z" fill="#2F2F35"/>
<path d="M228.358 131.204C228.404 131.956 227.831 132.603 227.08 132.649C226.328 132.695 225.681 132.123 225.635 131.371C225.589 130.619 226.162 129.972 226.913 129.926C227.665 129.88 228.311 130.452 228.358 131.204Z" stroke="#2F2F35" stroke-width="1.4339" stroke-miterlimit="10"/>
<path d="M232.408 122.497C232.485 123.758 231.526 124.843 230.264 124.92C229.003 124.997 227.918 124.038 227.841 122.777L227.651 119.678C227.574 118.417 228.533 117.332 229.794 117.254C231.055 117.177 232.14 118.136 232.218 119.398L232.408 122.497Z" fill="#2F2F35"/>
<path d="M254.305 121.152C254.382 122.413 255.468 123.372 256.728 123.295C257.989 123.218 258.949 122.132 258.871 120.872L258.681 117.773C258.604 116.511 257.519 115.552 256.258 115.629C254.997 115.707 254.038 116.792 254.115 118.053L254.305 121.152Z" fill="#2F2F35"/>
<path d="M229.988 120.442C229.988 120.442 226.863 79.3976 241.419 78.5026C255.975 77.6084 256.453 118.815 256.453 118.815" stroke="#2E7D32" stroke-width="2.8678" stroke-miterlimit="10" stroke-linecap="round"/>
<path d="M225.633 86.9098L239.3 80.1445L243.08 91.6861L226.997 98.5098L225.633 86.9098Z" fill="#FF7E6E"/>
<path d="M268.353 104.831L272.886 96.1544C273.182 95.5867 273.943 95.4673 274.399 95.9172L277.2 98.6802C277.617 99.092 277.568 99.7798 277.095 100.127L269.431 105.755C268.808 106.211 267.996 105.514 268.353 104.831Z" fill="#A9A7AA"/>
<path d="M276.19 119.342L285.525 114.451C286 114.202 286.581 114.484 286.679 115.011L287.477 119.262C287.568 119.745 287.205 120.194 286.714 120.207L276.486 120.479C275.847 120.496 275.623 119.638 276.19 119.342Z" fill="#A9A7AA"/>
<path d="M276.124 132.995L287.413 134.907C287.88 134.986 288.137 135.495 287.924 135.918L285.879 139.996C285.685 140.383 285.19 140.505 284.837 140.251L275.807 133.753C275.446 133.491 275.684 132.921 276.124 132.995Z" fill="#A9A7AA"/>
<path d="M217.581 90.8209C217.581 90.8209 225.26 90.5317 224.287 99.6587C225.724 99.0488 226.182 98.8547 226.182 98.8547C226.182 98.8547 226.903 89.4491 220.036 89.3281C217.581 89.869 217.581 90.8209 217.581 90.8209Z" fill="#2E7D32"/>
<path opacity="0.49" d="M219.753 107.994C218.387 108.287 216.877 101.706 216.096 98.8786C215.589 97.0399 212.032 96.2115 209.607 95.8574C208.573 98.0251 208.952 101.284 210.021 106.811C210.141 107.433 210.489 107.998 211.005 108.366C214.373 110.763 218.67 110.118 221.396 108.518C220.927 108.153 220.345 107.868 219.753 107.994Z" fill="#CD2E2B"/>
<path opacity="0.5" d="M267.355 131.98C253.757 133.89 244.26 146.229 241.922 149.561L263.106 148.259C265.294 148.124 267.015 146.338 267.067 144.147L267.355 131.98Z" fill="white"/>
<path opacity="0.5" d="M180.99 238.834C173.746 239.82 171.462 246.8 171.462 246.8H179.733C181.637 244.367 184.78 242.005 189.618 239.874C191.648 226.044 186.773 204.514 184.01 193.953C183.344 203.857 182.381 218.16 180.99 238.834Z" fill="white"/>
<path opacity="0.5" d="M215.872 240.226C218.189 221.313 210.715 202.038 208.873 197.652C209.063 206.551 209.34 219.62 209.747 238.837C203.24 241.768 203.135 246.802 203.135 246.802H210.498C211.715 244.069 213.493 241.225 215.872 240.226Z" fill="white"/>
<path d="M177.836 175.849C180.991 177.896 185.257 180.23 190.491 182.114C192.26 173.245 194.671 160.355 196.662 146.791C200.284 122.11 201.293 100.076 196.453 112.016C192.549 121.647 181.833 160.996 177.836 175.849Z" fill="#2F2F35"/>
<path opacity="0.5" d="M216.523 0.396619C209.178 1.17872 203.411 8.10314 200.736 16.7924C208.212 1.98194 223.535 6.39681 223.535 6.39681L226.386 8.47998L229.841 7.68163L230.542 6.15885C230.542 6.15885 227.133 -0.733086 216.523 0.396619Z" fill="white"/>
<path d="M231.73 11.8484C231.73 11.8484 224.523 13.5287 217.088 13.2355C219.64 11.1523 223.917 9.58246 231.73 11.8484Z" fill="#1C2F36"/>
<path opacity="0.5" d="M231.617 8.48047L220.374 10.3411C220.374 10.3411 217.397 17.7406 220.374 27.6919C221.066 28.2402 221.85 28.699 222.745 29.0287C224.434 29.4186 230.802 19.8027 231.581 13.4354C231.862 11.1451 231.803 9.56957 231.617 8.48047Z" fill="white"/>
</svg>
