<svg width="200" height="54" viewBox="0 0 200 54" fill="none" xmlns="http://www.w3.org/2000/svg">
<path d="M27.0089 29.2353L13.4157 26.8242C-6.91391 22.7855 -2.28261 0 14.9194 0H37.2338V11.0311H14.9194C10.5287 11.0311 9.38587 14.5273 15.8817 15.6726L29.535 18.144C49.8647 22.1224 45.1732 45.2093 27.9712 45.2093H2.95016V33.8166H27.9712C32.4221 33.8166 33.5649 30.3807 27.0089 29.2353Z" fill="#2E7D32"/>
<path d="M42.7039 0.0602819H53.9514V9.64465C66.101 4.0387 83.9045 10.0666 83.9045 27.5475V45.2093H72.657V27.5475C72.657 15.7328 54.0717 15.7328 54.0717 27.5475V45.2093H42.7039V0.0602819Z" fill="#2E7D32"/>
<path d="M104.29 7.05265C107.417 7.05265 110.364 7.71572 112.951 8.98158V24.9555C112.109 20.7963 108.259 18.3851 104.29 18.3851C99.7184 18.3851 95.5682 21.821 95.5682 26.342C95.5682 36.5291 113.071 36.8908 113.071 26.342C113.071 25.92 113.011 25.5583 112.951 25.1967L120.77 15.4314C122.995 18.4454 124.379 22.243 124.379 26.342C124.379 37.373 114.514 45.6313 104.29 45.6313C93.4631 45.6313 84.2607 36.8305 84.2607 26.342C84.2607 15.2506 94.0646 7.05265 104.29 7.05265Z" fill="#2E7D32"/>
<path d="M136.022 42.7981V52.9853H124.714C124.714 43.7023 124.654 34.4193 124.654 25.1967C124.654 20.2538 126.639 15.9137 129.827 12.7189C140.412 1.98921 161.825 8.61991 161.825 25.1967C161.825 34.8413 154.006 42.7981 144.322 42.7981H136.022ZM136.022 31.3451H144.322C147.75 31.3451 150.577 28.5723 150.577 25.1967C150.577 23.3883 149.855 21.821 148.713 20.7963C144.683 16.9987 136.022 18.8071 136.022 25.1967V31.3451Z" fill="#2E7D32"/>
<path d="M200 22.0621C200 25.92 200 29.7779 200 33.696C200 36.8305 198.617 39.7239 196.511 41.8337C194.346 43.9434 191.459 45.2093 188.031 45.2093C178.588 45.2093 179.851 45.2093 172.693 45.2093C169.385 45.2093 166.438 43.9434 164.213 41.8337C159.642 37.3127 159.642 29.4162 164.213 24.835C166.438 22.7855 169.385 21.5196 172.693 21.5196C181.595 21.5196 179.43 21.5196 188.512 21.5196C188.091 19.7113 186.407 18.3248 184.422 18.3248H166.558V7.65544H184.422C192.662 7.65544 199.519 14.045 200 22.0621ZM173.535 35.5647C180.332 35.5647 177.084 35.5647 186.226 35.5647C187.73 35.5647 188.993 34.4193 188.993 32.8521V30.1395C180.933 30.1395 180.813 30.1395 173.535 30.1395C169.866 30.1395 169.866 35.5647 173.535 35.5647Z" fill="#2E7D32"/>
<path d="M174.338 50.8605C174.338 52.5944 172.936 54 171.206 54C169.476 54 168.073 52.5944 168.073 50.8605C168.073 49.1265 169.476 47.7209 171.206 47.7209C172.936 47.7209 174.338 49.1265 174.338 50.8605Z" fill="#2E7D32"/>
<path d="M193.761 50.8605C193.761 52.5944 192.358 54 190.628 54C188.898 54 187.496 52.5944 187.496 50.8605C187.496 49.1265 188.898 47.7209 190.628 47.7209C192.358 47.7209 193.761 49.1265 193.761 50.8605Z" fill="#2E7D32"/>
</svg>
